<?xml version="1.0" encoding="utf-8"?>
<!-- Generator: Adobe Illustrator 16.0.0, SVG Export Plug-In . SVG Version: 6.00 Build 0)  -->
<!DOCTYPE svg PUBLIC "-//W3C//DTD SVG 1.1//EN" "http://www.w3.org/Graphics/SVG/1.1/DTD/svg11.dtd">
<svg version="1.1" id="Layer_1" xmlns="http://www.w3.org/2000/svg" xmlns:xlink="http://www.w3.org/1999/xlink" x="0px" y="0px"
	 width="1000px" height="1000px" viewBox="0 0 1000 1000" enable-background="new 0 0 1000 1000" xml:space="preserve">
<g>
	<g>
		<g>
			<g>
				<path fill-rule="evenodd" clip-rule="evenodd" fill="#0FBAB8" d="M361.959,155.203c36.09,2.11,63.183,4.392,90.318,5.177
					c149.338,4.206,248.669,84.258,266.394,230.872c9.482,78.599,6.858,161.474-6.959,239.473
					c-21.916,123.586-117.141,196.094-242.522,201.898c-123.301,5.703-131.942,18.894-92.458,149.238
					c87.796,0,177.443,2.396,266.921-0.499c176.973-5.732,316.586-140.896,325.071-318.026
					c5.033-105.034,5.903-210.782-0.157-315.674c-8.185-142.109-77.399-259.149-214.574-295.241
					c-123.914-32.61-258.451-24.868-392.033-35.213C361.959,76.541,361.959,110.029,361.959,155.203z M202.24,42.19
					C56.58,8.802,27.619,29.92,27.42,161.491c-0.342,225.968-0.271,451.937,0,677.905c0.143,139.57,27.991,160.874,166.948,127.549
					c2.125-8.07,5.604-16.726,6.517-25.639c7.486-72.565-11.008-169.999,28.775-210.738
					c39.199-40.154,137.075-24.069,209.414-30.515c72.836-6.488,112.163-46.144,120.392-116.97
					c28.675-245.575-4.421-283.177-254.303-291.447c-3.108-0.1-6.202-0.2-9.297-0.028c-67.475,3.208-95.523-31.072-93.897-96.18
					C203.281,143.524,202.24,91.549,202.24,42.19z"/>
			</g>
		</g>
	</g>
</g>
</svg>
